<svg 
 xmlns="http://www.w3.org/2000/svg"
 xmlns:xlink="http://www.w3.org/1999/xlink"
 width="8.90in" height="7in">
<defs>
<filter id="Filter_0">
    <feFlood flood-color="rgb(201, 149, 111)" flood-opacity="0.75" result="floodOut" />
    <feComposite operator="atop" in="floodOut" in2="SourceGraphic" result="compOut" />
    <feBlend mode="multiply" in="compOut" in2="SourceGraphic" />
</filter>
<linearGradient id="PSgrad_0" x1="0%" x2="0%" y1="0%" y2="100%">
  <stop offset="0%" stop-color="rgb(255,255,255)" stop-opacity="1" />
  <stop offset="100%" stop-color="rgb(215,215,215)" stop-opacity="1" />
</linearGradient>
<filter filterUnits="userSpaceOnUse" id="Filter_1" x="343px" y="0px" width="414px" height="504px"  >
    <feOffset in="SourceAlpha" dx="0" dy="1" />
    <feGaussianBlur result="blurOut" stdDeviation="5.657" />
    <feFlood flood-color="rgb(0, 0, 0)" result="floodOut" />
    <feComposite operator="atop" in="floodOut" in2="blurOut" />
    <feComponentTransfer><feFuncA type="linear" slope="0.22"/></feComponentTransfer>
    <feMerge>
    <feMergeNode/>
    <feMergeNode in="SourceGraphic"/>
  </feMerge>
</filter>
<filter id="Filter_2">
    <feOffset in="SourceAlpha" dx="0" dy="22" />
    <feGaussianBlur result="blurOut" stdDeviation="3.606" />
    <feFlood flood-color="rgb(0, 0, 0)" result="floodOut" />
    <feComposite operator="out" in="floodOut" in2="blurOut" result="compOut" />
    <feComposite operator="in" in="compOut" in2="SourceAlpha" />
    <feComponentTransfer><feFuncA type="linear" slope="0.43"/></feComponentTransfer>
    <feBlend mode="normal" in2="SourceGraphic" />
</filter>
<filter id="Filter_3">
    <feFlood flood-color="rgb(244, 235, 235)" flood-opacity="1" result="floodOut" />
    <feComposite operator="atop" in="floodOut" in2="SourceGraphic" result="compOut" />
    <feBlend mode="normal" in="compOut" in2="SourceGraphic" />
</filter>
<filter filterUnits="userSpaceOnUse" id="Filter_4" x="0px" y="223px" width="922px" height="492px"  >
    <feOffset in="SourceAlpha" dx="0" dy="0" />
    <feGaussianBlur result="blurOut" stdDeviation="8.062" />
    <feFlood flood-color="rgb(0, 0, 0)" result="floodOut" />
    <feComposite operator="atop" in="floodOut" in2="blurOut" />
    <feComponentTransfer><feFuncA type="linear" slope="0.25"/></feComponentTransfer>
    <feMerge>
    <feMergeNode/>
    <feMergeNode in="SourceGraphic"/>
  </feMerge>
</filter>

</defs>
<g filter="url(#Filter_0)">
<path fill-rule="evenodd"  fill="rgb(255, 255, 255)"
 d="M122.769,182.908 L410.446,182.908 C415.092,182.908 419.898,186.705 421.201,191.461 L444.161,275.246 C445.912,281.636 442.886,286.908 437.371,286.908 L95.844,286.908 C90.329,286.908 87.302,281.636 89.053,275.246 L112.013,191.461 C113.317,186.705 118.123,182.908 122.769,182.908 Z"/>
<path fill="url(#PSgrad_0)"
 d="M122.769,182.908 L410.446,182.908 C415.092,182.908 419.898,186.705 421.201,191.461 L444.161,275.246 C445.912,281.636 442.886,286.908 437.371,286.908 L95.844,286.908 C90.329,286.908 87.302,281.636 89.053,275.246 L112.013,191.461 C113.317,186.705 118.123,182.908 122.769,182.908 Z"/>
<path fill-rule="evenodd"  fill="rgb(255, 255, 255)"
 d="M73.344,244.906 L734.344,244.906 C739.867,244.906 744.344,249.383 744.344,254.906 L744.344,639.906 C744.344,645.429 739.867,649.906 734.344,649.906 L73.344,649.906 C67.821,649.906 63.344,645.429 63.344,639.906 L63.344,254.906 C63.344,249.383 67.821,244.906 73.344,244.906 Z"/>
<g filter="url(#Filter_1)">
<g filter="url(#Filter_2)">
<g filter="url(#Filter_3)">
<path fill-rule="evenodd"  fill="rgb(240, 240, 240)"
 d="M388.673,36.602 C521.839,29.550 696.049,15.082 590.198,203.345 C584.648,213.182 584.024,219.526 589.581,217.171 C725.052,161.853 727.803,295.644 717.930,457.105 C717.531,463.606 712.712,468.918 707.195,468.908 C600.247,468.908 493.300,468.908 386.352,468.908 C380.833,468.908 376.358,464.434 376.357,458.916 C376.357,321.686 376.357,184.456 376.357,47.226 C376.356,41.708 381.793,36.969 388.673,36.602 L388.673,36.602 Z"/>
</g></g></g>
<path fill-rule="evenodd"  fill="rgb(180, 180, 180)"
 d="M429.344,106.906 L572.344,106.906 C577.867,106.906 582.344,111.383 582.344,116.906 L582.344,121.906 C582.344,127.429 577.867,131.906 572.344,131.906 L429.344,131.906 C423.821,131.906 419.344,127.429 419.344,121.906 L419.344,116.906 C419.344,111.383 423.821,106.906 429.344,106.906 Z"/>
<path fill-rule="evenodd"  fill="rgb(180, 180, 180)"
 d="M429.344,209.906 L572.344,209.906 C577.867,209.906 582.344,214.383 582.344,219.906 L582.344,224.906 C582.344,230.429 577.867,234.906 572.344,234.906 L429.344,234.906 C423.821,234.906 419.344,230.429 419.344,224.906 L419.344,219.906 C419.344,214.383 423.821,209.906 429.344,209.906 Z"/>
<path fill-rule="evenodd"  fill="rgb(180, 180, 180)"
 d="M430.344,261.906 L654.344,261.906 C659.867,261.906 664.344,266.383 664.344,271.906 L664.344,276.906 C664.344,282.429 659.867,286.906 654.344,286.906 L430.344,286.906 C424.821,286.906 420.344,282.429 420.344,276.906 L420.344,271.906 C420.344,266.383 424.821,261.906 430.344,261.906 Z"/>
<path fill-rule="evenodd"  fill="rgb(180, 180, 180)"
 d="M430.344,313.906 L654.344,313.906 C659.867,313.906 664.344,318.383 664.344,323.906 L664.344,328.906 C664.344,334.429 659.867,338.906 654.344,338.906 L430.344,338.906 C424.821,338.906 420.344,334.429 420.344,328.906 L420.344,323.906 C420.344,318.383 424.821,313.906 430.344,313.906 Z"/>
<path fill-rule="evenodd"  fill="rgb(180, 180, 180)"
 d="M429.344,157.906 L572.344,157.906 C577.867,157.906 582.344,162.383 582.344,167.906 L582.344,172.906 C582.344,178.429 577.867,182.906 572.344,182.906 L429.344,182.906 C423.821,182.906 419.344,178.429 419.344,172.906 L419.344,167.906 C419.344,162.383 423.821,157.906 429.344,157.906 Z"/>
<g filter="url(#Filter_4)">
<path fill-rule="evenodd"  fill="rgb(240, 240, 240)"
 d="M159.910,294.862 C382.910,263.656 610.473,361.593 849.269,386.843 C855.262,387.490 858.187,388.871 855.860,390.204 C801.937,421.317 773.886,530.303 746.491,641.260 C745.312,646.035 739.880,649.909 734.357,649.908 C514.024,649.908 293.691,649.908 73.357,649.908 C67.834,649.908 64.312,646.035 65.491,641.257 C92.869,530.217 120.252,418.752 147.656,305.218 C148.835,300.344 154.319,295.652 159.910,294.862 L159.910,294.862 Z"/>
</g>
</g>
</svg>