<?xml version="1.0" encoding="iso-8859-1"?>
<!-- Generator: Adobe Illustrator 19.0.0, SVG Export Plug-In . SVG Version: 6.00 Build 0)  -->
<svg version="1.1" id="Layer_1" xmlns="http://www.w3.org/2000/svg" xmlns:xlink="http://www.w3.org/1999/xlink" x="0px" y="0px"
	 viewBox="0 0 511.599 511.599" style="enable-background:new 0 0 511.599 511.599;" xml:space="preserve">
<path style="fill:#434A54;" d="M255.799,42.623c-100.078,0-181.202,81.124-181.202,181.187
	c0,100.093,81.124,181.218,181.202,181.218c100.062,0,181.187-81.125,181.187-181.218
	C436.986,123.747,355.861,42.623,255.799,42.623z M368.835,336.862c-14.676,14.707-31.787,26.229-50.819,34.286
	c-19.688,8.337-40.624,12.552-62.217,12.552s-42.529-4.216-62.232-12.553c-19.032-8.057-36.128-19.579-50.819-34.286
	c-14.692-14.676-26.214-31.787-34.271-50.804c-8.337-19.72-12.553-40.656-12.553-62.248c0-21.593,4.216-42.514,12.553-62.218
	c8.057-19.031,19.578-36.128,34.271-50.819c14.691-14.691,31.787-26.214,50.819-34.27c19.703-8.337,40.639-12.552,62.232-12.552
	c21.593,0,42.529,4.215,62.217,12.553c19.032,8.056,36.144,19.578,50.819,34.27c14.691,14.691,26.23,31.788,34.286,50.819
	c8.321,19.704,12.553,40.625,12.553,62.218c0,21.592-4.231,42.528-12.553,62.248C395.066,305.074,383.527,322.186,368.835,336.862z"
	/>
<path style="fill:#FC6E51;" d="M362.372,458.298c0,5.901-4.762,10.679-10.648,10.679h-191.85c-5.886,0-10.664-4.777-10.664-10.679
	V309.102c0-5.901,4.778-10.679,10.664-10.679h191.85c5.887,0,10.648,4.777,10.648,10.679V458.298z"/>
<path style="fill:#ED5564;" d="M511.599,245.137c0,5.886-4.777,10.647-10.663,10.647H309.085c-5.886,0-10.663-4.762-10.663-10.647
	V95.925c0-5.886,4.777-10.663,10.663-10.663h191.851c5.886,0,10.663,4.777,10.663,10.663L511.599,245.137L511.599,245.137z"/>
<path id="SVGCleanerId_0" style="fill:#FFCE54;" d="M213.16,245.137c0,5.886-4.777,10.647-10.663,10.647H10.647
	C4.761,255.784,0,251.022,0,245.137V95.925c0-5.886,4.762-10.663,10.647-10.663h191.851c5.886,0,10.663,4.777,10.663,10.663v149.212
	H213.16z"/>
<g>
	<path id="SVGCleanerId_0_1_" style="fill:#FFCE54;" d="M213.16,245.137c0,5.886-4.777,10.647-10.663,10.647H10.647
		C4.761,255.784,0,251.022,0,245.137V95.925c0-5.886,4.762-10.663,10.647-10.663h191.851c5.886,0,10.663,4.777,10.663,10.663
		v149.212H213.16z"/>
</g>
<polygon style="fill:#DA4453;" points="90.553,187.588 39.39,255.784 141.685,255.784 "/>
<path style="fill:#ED5564;" d="M213.16,225.902l-50.429-67.244L89.85,255.785h112.646c5.886,0,10.663-4.762,10.663-10.647v-19.236
	H213.16z"/>
<path style="fill:#FC6E51;" d="M74.831,138.548c0,11.771-9.539,21.327-21.312,21.327s-21.312-9.556-21.312-21.327
	c0-11.772,9.539-21.312,21.312-21.312S74.831,126.776,74.831,138.548z"/>
<path style="fill:#E6E9ED;" d="M303.761,341.077c0-5.901-4.777-10.68-10.663-10.68c-1.765,0-3.435,0.438-4.902,1.218l0,0
	c-11.397,5.902-21.296,0.469-21.718,0.25l0.125,0.062h-0.016c-1.592-0.968-3.466-1.53-5.465-1.53
	c-5.885,0-10.663,4.778-10.663,10.68v63.95h21.327v-49.712c1.732,0.219,3.591,0.344,5.527,0.344c6.182,0,13.286-1.28,20.687-5.121
	v-0.031C301.419,348.758,303.761,345.168,303.761,341.077z"/>
<g>
	<path style="fill:#F5F7FA;" d="M271.786,405.028c0,17.642-14.316,31.975-31.975,31.975s-31.976-14.333-31.976-31.975
		c0-17.674,14.317-31.976,31.976-31.976S271.786,387.354,271.786,405.028z"/>
	<polygon style="fill:#F5F7FA;" points="373.035,117.237 458.297,170.523 373.035,223.81 	"/>
</g>
<g>
</g>
<g>
</g>
<g>
</g>
<g>
</g>
<g>
</g>
<g>
</g>
<g>
</g>
<g>
</g>
<g>
</g>
<g>
</g>
<g>
</g>
<g>
</g>
<g>
</g>
<g>
</g>
<g>
</g>
</svg>
